<?xml version="1.0" encoding="UTF-8" standalone="no"?>
<!-- Created with Inkscape (http://www.inkscape.org/) -->

<svg
   width="91.384666mm"
   height="99.456169mm"
   viewBox="0 0 91.384666 99.456169"
   version="1.1"
   id="svg1"
   inkscape:version="1.4.4 (dcaf3e7, 2026-05-05)"
   sodipodi:docname="damian.svg"
   xmlns:inkscape="http://www.inkscape.org/namespaces/inkscape"
   xmlns:sodipodi="http://sodipodi.sourceforge.net/DTD/sodipodi-0.dtd"
   xmlns="http://www.w3.org/2000/svg"
   xmlns:svg="http://www.w3.org/2000/svg">
  <sodipodi:namedview
     id="namedview1"
     pagecolor="#ffffff"
     bordercolor="#999999"
     borderopacity="1"
     inkscape:showpageshadow="2"
     inkscape:pageopacity="0"
     inkscape:pagecheckerboard="0"
     inkscape:deskcolor="#d1d1d1"
     inkscape:document-units="mm"
     inkscape:zoom="0.71891835"
     inkscape:cx="94.586541"
     inkscape:cy="500.05679"
     inkscape:window-width="1920"
     inkscape:window-height="1009"
     inkscape:window-x="1912"
     inkscape:window-y="-8"
     inkscape:window-maximized="1"
     inkscape:current-layer="layer1">
    <inkscape:page
       x="0"
       y="0"
       width="91.384666"
       height="99.456169"
       id="page2"
       margin="0"
       bleed="0" />
  </sodipodi:namedview>
  <defs
     id="defs1" />
  <g
     inkscape:label="Layer 1"
     inkscape:groupmode="layer"
     id="layer1"
     transform="translate(-51.651532,-22.921156)">
    <path
       d="m 60.651495,22.921687 v 2.59829 c -3.06351,0.28217 -6.0674,0.68772 -8.999963,1.21027 v 9.17463 c 2.914413,-0.57344 5.919993,-1.02226 8.999963,-1.33532 v 70.733163 c -3.17828,-0.44456 -6.19689,-1.08433 -8.999963,-1.88464 v 17.27233 c 2.932563,0.52243 5.936453,0.92817 8.999963,1.21026 2.94831,0.27149 5.95177,0.42845 8.99997,0.46509 95.837615,1.24483 99.834595,-98.392573 0,-97.311923 v -2.13268 z M 103.83388,107.7899 C 136.05898,90.956867 116.83053,57.083537 69.651465,57.814647 v -23.75927 c 64.070945,-0.84644 91.665685,52.61081 34.182415,73.734523 z M 69.651465,106.00449 V 66.816167 c 54.012775,-0.9378 52.400445,40.143083 0,39.188323 z"
       style="baseline-shift:baseline;display:inline;overflow:visible;opacity:1;vector-effect:none;stroke-linejoin:round;paint-order:stroke markers fill;enable-background:accumulate;stop-color:#000000;stop-opacity:1"
       id="path23"
       sodipodi:nodetypes="ccccccccscccccccccsc" />
  </g>
</svg>
