<?xml version="1.0" encoding="UTF-8" standalone="no"?>
<!-- Created with Inkscape (http://www.inkscape.org/) -->

<svg
   width="1280"
   height="720"
   viewBox="0 0 1280 720"
   version="1.1"
   id="svg1"
   xmlns:inkscape="http://www.inkscape.org/namespaces/inkscape"
   xmlns:sodipodi="http://sodipodi.sourceforge.net/DTD/sodipodi-0.dtd"
   xmlns="http://www.w3.org/2000/svg"
   xmlns:svg="http://www.w3.org/2000/svg">
  <sodipodi:namedview
     id="namedview1"
     pagecolor="#ffffff"
     bordercolor="#999999"
     borderopacity="1"
     inkscape:showpageshadow="2"
     inkscape:pageopacity="0"
     inkscape:pagecheckerboard="0"
     inkscape:deskcolor="#d1d1d1"
     inkscape:document-units="px">
    <inkscape:page
       x="0"
       y="0"
       width="1280"
       height="720"
       id="page2"
       margin="0"
       bleed="0" />
  </sodipodi:namedview>
  <defs
     id="defs1">
    <inkscape:path-effect
       effect="fillet_chamfer"
       id="path-effect8"
       is_visible="true"
       lpeversion="1"
       nodesatellites_param="F,0,0,1,0,0,0,1 @ F,0,0,1,0,0,0,1 @ F,0,0,1,0,0,0,1 @ F,0,0,1,0,0,0,1 @ F,0,0,1,0,0,0,1 @ F,0,0,1,0,0,0,1 @ F,0,0,1,0,90.865205,0,1 @ F,0,0,1,0,0,0,1 @ F,0,0,1,0,0,0,1 @ F,0,0,1,0,0,0,1"
       radius="0"
       unit="px"
       method="auto"
       mode="F"
       chamfer_steps="1"
       flexible="false"
       use_knot_distance="true"
       apply_no_radius="true"
       apply_with_radius="true"
       only_selected="false"
       hide_knots="false" />
    <inkscape:path-effect
       effect="fillet_chamfer"
       id="path-effect6"
       is_visible="true"
       lpeversion="1"
       nodesatellites_param="F,0,0,1,0,0,0,1 @ F,0,0,1,0,0,0,1 @ F,0,0,1,0,0,0,1 @ F,0,0,1,0,0,0,1 @ F,0,0,1,0,0,0,1 @ F,0,0,1,0,0,0,1 @ F,0,0,1,0,90.865205,0,1 @ F,0,0,1,0,0,0,1 @ F,0,0,1,0,0,0,1 @ F,0,0,1,0,0,0,1"
       radius="0"
       unit="px"
       method="auto"
       mode="F"
       chamfer_steps="1"
       flexible="false"
       use_knot_distance="true"
       apply_no_radius="true"
       apply_with_radius="true"
       only_selected="false"
       hide_knots="false" />
    <inkscape:path-effect
       effect="fillet_chamfer"
       id="path-effect3"
       is_visible="true"
       lpeversion="1"
       nodesatellites_param="F,0,0,1,0,0,0,1 @ F,0,0,1,0,0,0,1 @ F,0,0,1,0,0,0,1 @ F,0,0,1,0,0,0,1 @ F,0,0,1,0,0,0,1 @ F,0,0,1,0,0,0,1 @ F,0,0,1,0,90.865205,0,1 @ F,0,0,1,0,0,0,1 @ F,0,0,1,0,0,0,1 @ F,0,0,1,0,0,0,1"
       radius="0"
       unit="px"
       method="auto"
       mode="F"
       chamfer_steps="1"
       flexible="false"
       use_knot_distance="true"
       apply_no_radius="true"
       apply_with_radius="true"
       only_selected="false"
       hide_knots="false" />
  </defs>
  <g
     inkscape:label="Layer 1"
     inkscape:groupmode="layer"
     id="layer1">
    <path
       style="display:none;fill:none;stroke:#000000;stroke-width:1;stroke-linejoin:round;stroke-dasharray:none;paint-order:stroke markers fill"
       d="M 0,720 C 118.34585,324.01794 192.7474,300.75842 1280,0"
       id="path1"
       sodipodi:nodetypes="cc"
       sodipodi:insensitive="true" />
    <g
       id="g8">
      <path
         style="fill:none;stroke:#54575f;stroke-width:5;stroke-linecap:round;stroke-linejoin:round;stroke-dasharray:none;stroke-opacity:1;paint-order:stroke fill markers"
         d="m -103.49442,556.72862 c 0,0 270.03906,-130.77823 276.57992,-253.3829 C 179.62636,180.74105 -135.3522,168.98437 -66.022305,32.118959 3.3075897,-104.74645 347.71875,130.73254 490.70632,82.081784 633.69389,33.431023 696.8005,-114.3972 806.54275,-119.5539 916.285,-124.7106 1036.9939,-212.46541 1006.3941,-37.472119 983.27649,94.731973 623.35764,179.9469 451.80344,207.56052 402.75055,215.45615 370.63457,175.74362 370.8557,125.6886 371.25663,34.931153 351.59271,-96.587629 251.59852,-135.61339 98.244048,-195.46461 -46.565813,189.20398 -51.747211,324.75837 -56.928609,460.31276 35.687732,504.98141 35.687732,504.98141"
         id="path2"
         sodipodi:nodetypes="czzzzzzzzc"
         inkscape:original-d="m -103.49442,556.72862 c 0,0 270.03906,-130.77823 276.57992,-253.3829 C 179.62636,180.74105 -135.3522,168.98437 -66.022305,32.118959 3.3075897,-104.74645 347.71875,130.73254 490.70632,82.081784 633.69389,33.431023 696.8005,-114.3972 806.54275,-119.5539 916.285,-124.7106 1036.9939,-212.46541 1006.3941,-37.472119 975.79424,137.52117 355.09294,230.18587 362.23049,215.91077 369.36804,201.63568 404.95299,-75.762163 251.59852,-135.61339 98.244048,-195.46461 -46.565813,189.20398 -51.747211,324.75837 -56.928609,460.31276 35.687732,504.98141 35.687732,504.98141"
         inkscape:path-effect="#path-effect3" />
      <path
         style="fill:none;stroke:#54575f;stroke-width:2;stroke-linecap:round;stroke-linejoin:round;stroke-dasharray:12, 12;stroke-dashoffset:0;stroke-opacity:1;paint-order:stroke fill markers"
         d="m -103.49442,556.72862 c 0,0 270.03906,-130.77823 276.57992,-253.3829 C 179.62636,180.74105 -135.3522,168.98437 -66.022305,32.118959 3.3075897,-104.74645 347.71875,130.73254 490.70632,82.081784 633.69389,33.431023 696.8005,-114.3972 806.54275,-119.5539 916.285,-124.7106 1036.9939,-212.46541 1006.3941,-37.472119 983.27649,94.731973 623.35764,179.9469 451.80344,207.56052 402.75055,215.45615 370.63457,175.74362 370.8557,125.6886 371.25663,34.931153 351.59271,-96.587629 251.59852,-135.61339 98.244048,-195.46461 -46.565813,189.20398 -51.747211,324.75837 -56.928609,460.31276 35.687732,504.98141 35.687732,504.98141"
         id="path5"
         sodipodi:nodetypes="czzzzzzzzc"
         transform="translate(12,-2)"
         inkscape:original-d="m -103.49442,556.72862 c 0,0 270.03906,-130.77823 276.57992,-253.3829 C 179.62636,180.74105 -135.3522,168.98437 -66.022305,32.118959 3.3075897,-104.74645 347.71875,130.73254 490.70632,82.081784 633.69389,33.431023 696.8005,-114.3972 806.54275,-119.5539 916.285,-124.7106 1036.9939,-212.46541 1006.3941,-37.472119 975.79424,137.52117 355.09294,230.18587 362.23049,215.91077 369.36804,201.63568 404.95299,-75.762163 251.59852,-135.61339 98.244048,-195.46461 -46.565813,189.20398 -51.747211,324.75837 -56.928609,460.31276 35.687732,504.98141 35.687732,504.98141"
         inkscape:path-effect="#path-effect6" />
      <path
         style="fill:none;stroke:#54575f;stroke-width:1;stroke-linecap:round;stroke-linejoin:round;stroke-dasharray:1, 6;stroke-dashoffset:0;stroke-opacity:1;paint-order:stroke fill markers"
         d="m -103.49442,556.72862 c 0,0 270.03906,-130.77823 276.57992,-253.3829 C 179.62636,180.74105 -135.3522,168.98437 -66.022305,32.118959 3.3075897,-104.74645 347.71875,130.73254 490.70632,82.081784 633.69389,33.431023 696.8005,-114.3972 806.54275,-119.5539 916.285,-124.7106 1036.9939,-212.46541 1006.3941,-37.472119 983.27649,94.731973 623.35764,179.9469 451.80344,207.56052 402.75055,215.45615 370.63457,175.74362 370.8557,125.6886 371.25663,34.931153 351.59271,-96.587629 251.59852,-135.61339 98.244048,-195.46461 -46.565813,189.20398 -51.747211,324.75837 -56.928609,460.31276 35.687732,504.98141 35.687732,504.98141"
         id="path6"
         sodipodi:nodetypes="czzzzzzzzc"
         transform="translate(18,-6)"
         inkscape:original-d="m -103.49442,556.72862 c 0,0 270.03906,-130.77823 276.57992,-253.3829 C 179.62636,180.74105 -135.3522,168.98437 -66.022305,32.118959 3.3075897,-104.74645 347.71875,130.73254 490.70632,82.081784 633.69389,33.431023 696.8005,-114.3972 806.54275,-119.5539 916.285,-124.7106 1036.9939,-212.46541 1006.3941,-37.472119 975.79424,137.52117 355.09294,230.18587 362.23049,215.91077 369.36804,201.63568 404.95299,-75.762163 251.59852,-135.61339 98.244048,-195.46461 -46.565813,189.20398 -51.747211,324.75837 -56.928609,460.31276 35.687732,504.98141 35.687732,504.98141"
         inkscape:path-effect="#path-effect8" />
    </g>
    <g
       id="g13"
       style="display:inline">
      <path
         style="fill:none;stroke:#49576a;stroke-width:5;stroke-linecap:round;stroke-linejoin:round;stroke-dasharray:none;stroke-dashoffset:0;stroke-opacity:1;paint-order:stroke fill markers"
         d="m 290.85501,285.50186 c 0,0 -240.279609,-89.35751 -205.204453,-214.126392 C 115.01484,-33.078789 554.85122,-76.324039 800.40234,-55.282074 c 65.15445,5.583268 167.63534,34.967075 229.39106,56.8152001 61.1684,21.6404529 34.8942,59.4014119 -47.27776,59.7287899 l -223.87437,0.89193 A 424.20178,424.20178 169.71626 0 0 612.88828,88.598938 L 324.48639,195.50652 A 60.502586,60.502586 23.796441 0 1 247.38692,161.50733 L 215.91078,83.866171"
         id="path10"
         sodipodi:nodetypes="czscccc" />
      <path
         style="fill:none;stroke:#49576a;stroke-width:2;stroke-linecap:round;stroke-linejoin:round;stroke-dasharray:12, 12;stroke-dashoffset:0;stroke-opacity:1;paint-order:stroke fill markers"
         d="m 296.85501,275.50186 c 0,0 -240.279609,-89.35751 -205.204453,-214.126392 C 121.01484,-43.078789 560.85122,-86.324039 806.40234,-65.282074 c 65.15445,5.583268 167.63534,34.967075 229.39106,56.8152 61.1684,21.640453 34.8942,59.401412 -47.27776,59.72879 l -223.87437,0.89193 A 424.20178,424.20178 0 0 0 618.88828,78.598938 L 330.48639,185.50652 A 60.502586,60.502586 0 0 1 253.38692,151.50733 L 221.91078,73.866171"
         id="path12"
         sodipodi:nodetypes="czscccc" />
      <path
         style="fill:none;stroke:#49576a;stroke-width:1;stroke-linecap:round;stroke-linejoin:round;stroke-dasharray:1, 6;stroke-dashoffset:0;stroke-opacity:1;paint-order:stroke fill markers"
         d="m 304.85501,273.50186 c 0,0 -240.279609,-89.35751 -205.204453,-214.126392 C 129.01484,-45.078789 568.85122,-88.324039 814.40234,-67.282074 c 65.15445,5.583268 167.63534,34.967075 229.39106,56.8152 61.1684,21.640453 34.8942,59.401412 -47.27776,59.72879 l -223.87437,0.89193 A 424.20178,424.20178 0 0 0 626.88828,76.598938 L 338.48639,183.50652 A 60.502586,60.502586 0 0 1 261.38692,149.50733 L 229.91078,71.866171"
         id="path13"
         sodipodi:nodetypes="czscccc" />
    </g>
    <g
       id="g16">
      <path
         style="fill:none;stroke:#646e82;stroke-width:2;stroke-linecap:round;stroke-linejoin:round;stroke-dasharray:12, 12;stroke-dashoffset:0;stroke-opacity:1;paint-order:stroke fill markers"
         d="M 1156.1942,13.235038 986.98096,-197.95359 C 900.64851,-305.70185 758.18461,-307.65767 663.36946,-207.31255 482.2268,-15.604992 198.16653,255.95528 40.805549,258.0149 -202.57933,261.20044 -97.98716,293.34395 -97.98716,293.34395 c 0,0 159.281574,-61.91747 161.504242,73.18161 1.157731,70.36966 -96.795876,133.84307 -190.925802,178.5124 -91.00856,43.18808 -88.21963,65.04783 12.58166,63.54334 l 21.22686,-0.31682 A 247.32409,247.32409 0 0 0 112.23,492.38358 l 18.46345,-29.43701 A 522.56597,522.56597 0 0 1 237.82554,340.01985 l 131.0355,-109.76349"
         id="path15"
         sodipodi:nodetypes="cczczcccc" />
      <path
         style="fill:none;stroke:#646e82;stroke-width:5;stroke-linecap:round;stroke-linejoin:round;stroke-dasharray:none;stroke-dashoffset:0;stroke-opacity:1;paint-order:stroke fill markers"
         d="M 1148.1942,25.235038 978.98096,-185.95359 C 892.64851,-293.70185 750.18461,-295.65767 655.36946,-195.31255 474.2268,-3.6049917 190.16653,267.95528 32.805549,270.0149 c -243.384879,3.18554 -138.792709,35.32905 -138.792709,35.32905 0,0 159.281574,-61.91747 161.504242,73.18161 1.157731,70.36966 -96.795876,133.84307 -190.925802,178.5124 -91.00856,43.18808 -88.21963,65.04783 12.58166,63.54334 l 21.22686,-0.31682 A 247.32409,247.32409 150.62081 0 0 104.23,504.38358 l 18.46345,-29.43701 A 522.56597,522.56597 131.07254 0 1 229.82554,352.01985 l 131.0355,-109.76349"
         id="path14"
         sodipodi:nodetypes="cczczcccc" />
      <path
         style="fill:none;stroke:#646e82;stroke-width:1;stroke-linecap:round;stroke-linejoin:round;stroke-dasharray:1, 6;stroke-dashoffset:0;stroke-opacity:1;paint-order:stroke fill markers"
         d="M 1166.1942,11.235038 996.98096,-199.95359 C 910.64851,-307.70185 768.18461,-309.65767 673.36946,-209.31255 492.2268,-17.604992 208.16653,253.95528 50.805549,256.0149 -192.57933,259.20044 -87.98716,291.34395 -87.98716,291.34395 c 0,0 159.281574,-61.91747 161.504242,73.18161 1.157731,70.36966 -96.795876,133.84307 -190.925802,178.5124 -91.00856,43.18808 -88.21963,65.04783 12.58166,63.54334 l 21.22686,-0.31682 A 247.32409,247.32409 0 0 0 122.23,490.38358 l 18.46345,-29.43701 A 522.56597,522.56597 0 0 1 247.82554,338.01985 l 131.0355,-109.76349"
         id="path16"
         sodipodi:nodetypes="cczczcccc" />
    </g>
  </g>
</svg>
